<svg aria-hidden="true" style="position: absolute; width: 0; height: 0; overflow: hidden;" version="1.1" xmlns="http://www.w3.org/2000/svg" xmlns:xlink="http://www.w3.org/1999/xlink">
<defs>
<symbol id="icon-viber" viewBox="0 0 32 32">
<path fill="#665cac" style="fill: var(--color1, #665cac)" d="M15.197 0.003c-2.567 0.035-8.089 0.456-11.179 3.287-2.293 2.28-3.095 5.641-3.188 9.804-0.080 4.147-0.173 11.933 7.333 14.055v3.227c0 0-0.051 1.293 0.803 1.56 1.053 0.333 1.653-0.665 2.653-1.732l1.867-2.107c5.133 0.427 9.067-0.559 9.52-0.705 1.040-0.333 6.908-1.081 7.868-8.869 0.987-8.041-0.48-13.108-3.12-15.401l-0.013-0.003c-0.8-0.733-4-3.067-11.16-3.093 0 0-0.528-0.033-1.384-0.021zM15.287 2.265c0.727-0.004 1.173 0.027 1.173 0.027 6.053 0.013 8.948 1.84 9.628 2.453 2.227 1.905 3.371 6.475 2.533 13.189-0.8 6.507-5.56 6.92-6.44 7.2-0.373 0.12-3.84 0.973-8.203 0.693 0 0-3.252 3.921-4.265 4.935-0.16 0.173-0.347 0.227-0.467 0.2-0.173-0.040-0.227-0.253-0.213-0.547l0.027-5.359c-6.361-1.76-5.988-8.403-5.921-11.869 0.080-3.467 0.733-6.309 2.667-8.229 2.609-2.36 7.3-2.68 9.481-2.693zM15.767 5.732c-0 0-0.001 0-0.001 0-0.22 0-0.399 0.178-0.399 0.399 0 0 0 0 0 0v0c0 0.221 0.179 0.4 0.4 0.4v0c0.043-0.001 0.093-0.001 0.143-0.001 2.034 0 3.88 0.809 5.232 2.123l-0.002-0.002c1.453 1.413 2.161 3.307 2.188 5.787 0 0.221 0.179 0.4 0.4 0.4v0-0.012c0.221 0 0.4-0.179 0.4-0.4v0c0.005-0.109 0.008-0.236 0.008-0.364 0-2.326-0.923-4.436-2.423-5.985l0.002 0.002c-1.587-1.547-3.589-2.347-5.948-2.347zM10.495 6.652c-0.054-0.008-0.116-0.013-0.18-0.013-0.236 0-0.457 0.064-0.646 0.176l0.006-0.003h-0.016c-0.547 0.32-1.051 0.72-1.531 1.253-0.36 0.427-0.561 0.852-0.615 1.265-0.009 0.064-0.014 0.137-0.014 0.212 0 0.182 0.029 0.357 0.084 0.521l-0.003-0.012 0.027 0.013c0.458 1.331 0.998 2.476 1.646 3.549l-0.046-0.082c0.895 1.608 1.922 2.996 3.101 4.237l-0.008-0.009 0.040 0.053 0.053 0.040 0.080 0.080c1.236 1.174 2.628 2.205 4.136 3.053l0.104 0.054c1.76 0.96 2.829 1.413 3.469 1.6v0.013c0.187 0.053 0.357 0.080 0.531 0.080 0.57-0.043 1.079-0.274 1.471-0.631l-0.002 0.002c0.52-0.467 0.933-0.984 1.24-1.531v-0.013c0.307-0.573 0.2-1.121-0.24-1.495-0.845-0.742-1.782-1.421-2.781-2.007l-0.085-0.046c-0.68-0.373-1.373-0.147-1.653 0.227l-0.6 0.759c-0.307 0.373-0.867 0.32-0.867 0.32l-0.016 0.013c-4.16-1.067-5.267-5.279-5.267-5.279s-0.053-0.573 0.333-0.867l0.747-0.6c0.36-0.293 0.613-0.987 0.227-1.667-0.631-1.084-1.31-2.022-2.071-2.887l0.017 0.020c-0.166-0.204-0.399-0.349-0.665-0.399l-0.007-0.001zM16.459 7.839c-0.22 0.001-0.399 0.18-0.399 0.4s0.179 0.4 0.4 0.4c0 0 0.001 0 0.001 0h-0c1.388 0.025 2.636 0.607 3.532 1.532l0.001 0.001c0.75 0.825 1.209 1.926 1.209 3.134 0 0.103-0.003 0.205-0.010 0.306l0.001-0.014c0.001 0.22 0.18 0.399 0.4 0.399 0 0 0 0 0 0v0l0.013 0.016c0 0 0 0 0 0 0.221 0 0.4-0.179 0.4-0.4 0-0 0-0.001 0-0.001v0c0.040-1.587-0.453-2.92-1.427-3.987s-2.333-1.667-4.067-1.787c-0.008-0.001-0.018-0.001-0.028-0.001s-0.020 0-0.029 0.001l0.001-0zM17.112 9.997c-0.004-0-0.008-0-0.012-0-0.225 0-0.407 0.182-0.407 0.408 0 0.221 0.176 0.401 0.395 0.407h0.001c1.32 0.067 1.96 0.733 2.040 2.107 0.007 0.215 0.184 0.387 0.4 0.387 0 0 0 0 0 0h0.013c0.215-0.007 0.388-0.183 0.388-0.4 0-0.009-0-0.019-0.001-0.028l0 0.001c-0.093-1.787-1.067-2.788-2.8-2.881-0.002-0-0.005-0-0.008-0s-0.006 0-0.008 0h0z"></path>
</symbol>
<symbol id="icon-xz3" viewBox="0 0 34 32">
<path fill="none" stroke="#fff" style="stroke: var(--color2, #fff)" stroke-linejoin="miter" stroke-linecap="butt" stroke-miterlimit="4" stroke-width="2.6667" d="M7.36 6.080h22.311c1.173 0 2.009 1.102 1.707 2.24l-1.209 4.427c-0.622 2.329-2.738 3.947-5.138 3.947h-15.716M0 0h3.556c1.724 0 3.218 1.244 3.502 2.951l2.667 15.751c0.284 1.707 1.778 2.969 3.502 2.969lNaNNaN"></path>
<path fill="none" stroke="#fff" style="stroke: var(--color2, #fff)" stroke-linejoin="miter" stroke-linecap="butt" stroke-miterlimit="4" stroke-width="2.6667" d="M15.719 27.909c0 0.903-0.766 1.636-1.711 1.636s-1.711-0.732-1.711-1.636c0-0.903 0.766-1.636 1.711-1.636s1.711 0.732 1.711 1.636z"></path>
<path fill="none" stroke="#fff" style="stroke: var(--color2, #fff)" stroke-linejoin="miter" stroke-linecap="butt" stroke-miterlimit="4" stroke-width="2.6667" d="M29.114 27.909c0 0.903-0.766 1.636-1.711 1.636s-1.711-0.732-1.711-1.636c0-0.903 0.766-1.636 1.711-1.636s1.711 0.732 1.711 1.636z"></path>
</symbol>
<symbol id="icon-scales" viewBox="0 0 33 32">
<path d="M33.216 16.026l-0.026 0.013-4.774-11.878h2.176c0.397 0 0.704-0.32 0.704-0.704 0-0.397-0.307-0.717-0.704-0.717h-13.312v-2.035c0-0.397-0.32-0.704-0.704-0.704-0.397 0-0.704 0.307-0.704 0.704v2.035h-13.312c-0.384 0-0.704 0.32-0.704 0.704 0 0.397 0.32 0.704 0.704 0.704h2.266l-4.774 11.878c-0.038 0.090-0.051 0.179-0.051 0.269 0 3.238 2.624 5.875 5.875 5.875s5.875-2.637 5.875-5.875c0-0.090-0.013-0.179-0.051-0.269l-4.774-11.878h8.947v21.875c-3.379 0.243-6.016 2.304-6.016 4.787 0 0.384 0.32 0.704 0.704 0.704h12.032c0.384 0 0.704-0.32 0.704-0.704 0-2.483-2.637-4.544-6.016-4.787v-21.875h9.037l-4.749 11.878c-0.038 0.090-0.051 0.179-0.051 0.269 0 3.238 2.624 5.875 5.875 5.875s5.888-2.637 5.888-5.875c-0.013-0.090-0.026-0.179-0.064-0.269zM5.875 20.774c-2.189-0.013-4.058-1.6-4.416-3.763h8.794c-0.346 2.15-2.202 3.738-4.378 3.763zM9.997 15.603h-8.23l4.122-10.266 4.109 10.266zM21.747 30.093h-10.355c0.525-1.51 2.675-2.688 5.171-2.688s4.659 1.178 5.184 2.688zM27.366 5.338l4.109 10.266h-8.243l4.134-10.266zM27.366 20.774v0c-2.189-0.013-4.045-1.613-4.39-3.763h8.794c-0.358 2.163-2.214 3.75-4.403 3.763z"></path>
</symbol>
<symbol id="icon-telegram" viewBox="0 0 32 32">
<path fill="#29b6f6" style="fill: var(--color3, #29b6f6)" d="M16 2.667c-7.364 0-13.333 5.97-13.333 13.333s5.97 13.333 13.333 13.333v0c7.364 0 13.333-5.97 13.333-13.333s-5.97-13.333-13.333-13.333v0z"></path>
<path fill="#fff" style="fill: var(--color2, #fff)" d="M22.633 10l-2.497 12.751c0 0-0.107 0.583-0.83 0.583-0.384 0-0.582-0.183-0.582-0.183l-5.409-4.489-2.647-1.334-3.397-0.903c0 0-0.605-0.175-0.605-0.675 0-0.417 0.622-0.615 0.622-0.615l14.211-5.645c-0.001-0.001 0.434-0.157 0.751-0.156 0.195 0 0.417 0.083 0.417 0.333 0 0.167-0.033 0.333-0.033 0.333z"></path>
<path fill="#b0bec5" style="fill: var(--color4, #b0bec5)" d="M15.333 20.337l-2.284 2.249c0 0-0.099 0.077-0.232 0.080-0.046 0.001-0.095-0.006-0.146-0.029l0.643-3.977 2.019 1.676z"></path>
<path fill="#cfd8dc" style="fill: var(--color5, #cfd8dc)" d="M19.931 12.131c-0.113-0.147-0.321-0.173-0.467-0.062l-8.797 5.265c0 0 1.404 3.928 1.618 4.608s0.387 0.697 0.387 0.697l0.643-3.977 6.555-6.064c0.147-0.111 0.174-0.32 0.063-0.467z"></path>
</symbol>
<symbol id="icon-facebook" viewBox="0 0 32 32">
<path fill="#039be5" style="fill: var(--color6, #039be5)" d="M16 3.333c-6.996 0-12.667 5.671-12.667 12.667s5.671 12.667 12.667 12.667v0c6.996 0 12.667-5.671 12.667-12.667s-5.671-12.667-12.667-12.667v0z"></path>
<path fill="#fff" style="fill: var(--color2, #fff)" d="M17.715 19.357h3.278l0.515-3.33h-3.793v-1.82c0-1.383 0.452-2.61 1.746-2.61h2.079v-2.906c-0.365-0.049-1.138-0.157-2.598-0.157-3.049 0-4.836 1.61-4.836 5.278v2.215h-3.134v3.33h3.134v9.153c0.621 0.093 1.249 0.157 1.895 0.157 0.583 0 1.153-0.053 1.715-0.129v-9.18z"></path>
</symbol>
<symbol id="icon-xz2" viewBox="0 0 44 32">
<path fill="none" stroke="#fff" style="stroke: var(--color2, #fff)" stroke-linejoin="miter" stroke-linecap="butt" stroke-miterlimit="4" stroke-width="2.4615" d="M2.462 2.462l18.191 13.637c0.886 0.665 2.092 0.665 2.978 0lNaNNaN"></path>
<path fill="none" stroke="#fff" style="stroke: var(--color2, #fff)" stroke-linejoin="miter" stroke-linecap="butt" stroke-miterlimit="4" stroke-width="2.4615" d="M6.154 1.231h32c2.719 0 4.923 2.204 4.923 4.923v19.692c0 2.719-2.204 4.923-4.923 4.923h-32c-2.719 0-4.923-2.204-4.923-4.923v-19.692c0-2.719 2.204-4.923 4.923-4.923z"></path>
</symbol>
<symbol id="icon-point" viewBox="0 0 21 32">
<path   d="M10.353 0c-5.722 0-10.353 4.894-10.353 10.899 0 2.033 0.527 4.028 1.544 5.741l8.207 13.967c0.169 0.264 0.433 0.433 0.734 0.433 0 0 0 0 0.019 0 0.282-0.019 0.565-0.169 0.715-0.452l8.019-14.099c0.96-1.675 1.468-3.614 1.468-5.591 0-6.005-4.649-10.899-10.353-10.899zM17.751 15.567l-7.285 12.8-7.454-12.687c-0.847-1.431-1.299-3.087-1.299-4.781 0-5.007 3.878-9.111 8.64-9.111 4.744 0 8.621 4.104 8.621 9.111 0 1.656-0.433 3.256-1.224 4.668z"></path>
<path   d="M10.353 4.593c-3.181 0-5.76 2.579-5.76 5.741 0 3.144 2.541 5.76 5.76 5.76 3.238 0 5.741-2.635 5.741-5.76 0-3.162-2.579-5.741-5.741-5.741zM10.353 14.193c-2.127 0-3.859-1.732-3.859-3.859 0-2.108 1.732-3.84 3.859-3.84 2.108 0 3.84 1.732 3.84 3.84 0 2.089-1.694 3.859-3.84 3.859z"></path>
</symbol>
<symbol id="icon-xz4" viewBox="0 0 32 32">
<path fill="none" stroke="#fff" style="stroke: var(--color2, #fff)" stroke-linejoin="miter" stroke-linecap="butt" stroke-miterlimit="4" stroke-width="2" d="M31 16c0 8.284-6.716 15-15 15s-15-6.716-15-15c0-8.284 6.716-15 15-15s15 6.716 15 15z"></path>
<path fill="#fff" style="fill: var(--color2, #fff)" d="M15 8c-0.552 0-1 0.448-1 1v8c0 0.552 0.448 1 1 1s1-0.448 1-1v-8c0-0.552-0.448-1-1-1z"></path>
<path fill="#fff" style="fill: var(--color2, #fff)" d="M14 17c0 0.552 0.448 1 1 1h6c0.552 0 1-0.448 1-1s-0.448-1-1-1h-6c-0.552 0-1 0.448-1 1z"></path>
</symbol>
<symbol id="icon-phone" viewBox="0 0 30 32">
<path fill="#fff" style="fill: var(--color2, #fff)" d="M29.22 23.34l-3.74-3.92c-1.020-1.1-2.7-1.1-3.72 0l-1.7 1.78c-0.78 0.82-2.040 0.82-2.82 0l-7.34-7.76c-0.78-0.82-0.78-2.16 0-2.98 0.26-0.3 1.040-1.12 1.68-1.8 1.040-1.080 1.040-2.84 0-3.94l-3.72-3.92c-1.040-1.080-2.7-1.080-3.72 0-0.78 0.8-1.020 1.060-1.36 1.42-3.72 3.92-3.72 10.28 0 14.2l11.64 12.3c3.72 3.92 9.72 3.92 13.44 0l1.36-1.44c1.020-1.080 1.020-2.84 0-3.94zM5.38 2.12c0.34-0.36 0.9-0.36 1.24 0l3.72 3.92c0.34 0.36 0.34 0.96 0 1.32l-0.62 0.64-4.96-5.24 0.62-0.64zM15.66 27.4l-11.64-12.3c-2.88-3.020-3.040-7.78-0.5-11l4.96 5.22c-1.3 1.56-1.24 3.94 0.16 5.44l7.36 7.76c0 0 0 0 0 0 1.4 1.48 3.66 1.54 5.14 0.16l4.94 5.24c-3.040 2.68-7.54 2.54-10.42-0.52zM27.98 25.98l-0.62 0.66-4.98-5.26 0.62-0.66c0.34-0.36 0.9-0.36 1.24 0l3.74 3.94c0.34 0.36 0.34 0.96 0 1.32z"></path>
</symbol>
<symbol id="icon-arrow" viewBox="0 0 18 32">
<path   d="M17.34 17.34l-13.58 13.58c-0.86 0.86-2.26 0.86-3.12 0s-0.86-2.26 0-3.12l12.020-12.020-12.020-12.020c-0.86-0.86-0.86-2.26 0-3.12s2.26-0.86 3.12 0l13.58 13.58c0.44 0.42 0.66 1 0.66 1.56s-0.22 1.12-0.66 1.56z"></path>
</symbol>
<symbol id="icon-procent" viewBox="0 0 33 32">
<path  d="M32.087 17.789c-0.179-0.645-0.349-1.256-0.349-1.813s0.17-1.173 0.349-1.818c0.291-1.028 0.587-2.095 0.233-3.127-0.373-1.076-1.295-1.779-2.187-2.463-0.533-0.407-1.038-0.79-1.367-1.212-0.33-0.436-0.567-1.008-0.815-1.619-0.412-1.004-0.834-2.041-1.784-2.696-0.936-0.64-2.099-0.703-3.224-0.761-0.703-0.039-1.367-0.073-1.92-0.242-0.519-0.16-1.057-0.49-1.629-0.839-0.916-0.562-1.954-1.198-3.156-1.198-1.198 0-2.24 0.635-3.152 1.198-0.572 0.349-1.11 0.679-1.629 0.839-0.558 0.17-1.222 0.208-1.92 0.242-1.125 0.058-2.293 0.121-3.224 0.761-0.95 0.655-1.372 1.692-1.784 2.696-0.247 0.611-0.485 1.188-0.819 1.619-0.325 0.422-0.834 0.81-1.367 1.217-0.892 0.679-1.813 1.382-2.182 2.458-0.354 1.033-0.058 2.099 0.228 3.127 0.184 0.65 0.354 1.261 0.354 1.818s-0.17 1.169-0.354 1.813c-0.286 1.033-0.582 2.095-0.228 3.132 0.368 1.076 1.295 1.779 2.182 2.458 0.538 0.407 1.042 0.79 1.367 1.217 0.335 0.431 0.572 1.009 0.819 1.619 0.412 1.004 0.834 2.041 1.784 2.691 0.931 0.645 2.099 0.703 3.224 0.761 0.698 0.039 1.362 0.073 1.92 0.242 0.519 0.16 1.057 0.49 1.624 0.839 0.916 0.562 1.959 1.202 3.156 1.202 1.202 0 2.245-0.64 3.161-1.202 0.567-0.349 1.105-0.679 1.624-0.839 0.558-0.17 1.222-0.204 1.92-0.242 1.13-0.058 2.293-0.121 3.224-0.761 0.95-0.65 1.377-1.692 1.784-2.696 0.252-0.606 0.485-1.183 0.815-1.615 0.33-0.427 0.834-0.81 1.367-1.217 0.892-0.679 1.813-1.382 2.187-2.458 0.354-1.038 0.058-2.099-0.233-3.132zM30.982 20.475c-0.233 0.679-0.95 1.227-1.712 1.804-0.582 0.446-1.188 0.907-1.629 1.474-0.446 0.582-0.727 1.275-0.999 1.944-0.349 0.849-0.679 1.658-1.285 2.070-0.601 0.417-1.518 0.461-2.487 0.514-0.761 0.039-1.542 0.082-2.269 0.301-0.693 0.213-1.333 0.606-1.954 0.989-0.829 0.509-1.61 0.989-2.41 0.989-0.795 0-1.576-0.48-2.41-0.989-0.616-0.383-1.256-0.776-1.949-0.989-0.727-0.218-1.508-0.262-2.269-0.301-0.97-0.053-1.886-0.102-2.487-0.514-0.606-0.412-0.936-1.222-1.285-2.070-0.271-0.669-0.553-1.362-1.004-1.944-0.436-0.567-1.042-1.028-1.624-1.474-0.761-0.577-1.479-1.125-1.712-1.804-0.218-0.635 0.010-1.45 0.252-2.318 0.199-0.708 0.402-1.44 0.402-2.187s-0.204-1.474-0.402-2.182c-0.242-0.868-0.47-1.682-0.252-2.318 0.233-0.679 0.95-1.227 1.712-1.804 0.582-0.446 1.188-0.907 1.624-1.479 0.451-0.577 0.732-1.27 1.004-1.939 0.349-0.853 0.679-1.658 1.285-2.070 0.601-0.417 1.518-0.461 2.487-0.514 0.761-0.039 1.542-0.082 2.269-0.305 0.693-0.208 1.333-0.606 1.954-0.984 0.829-0.509 1.61-0.989 2.405-0.989 0.8 0 1.581 0.48 2.41 0.989 0.621 0.383 1.261 0.776 1.954 0.989 0.727 0.218 1.508 0.262 2.264 0.301 0.975 0.053 1.891 0.102 2.492 0.514 0.606 0.417 0.936 1.222 1.28 2.070 0.276 0.669 0.558 1.362 1.009 1.944 0.436 0.567 1.042 1.028 1.624 1.474 0.761 0.577 1.479 1.125 1.712 1.809 0.218 0.63-0.015 1.45-0.257 2.313-0.194 0.708-0.402 1.44-0.402 2.187s0.204 1.474 0.402 2.182c0.247 0.868 0.475 1.682 0.257 2.318z"></path>
<path  d="M16.242 4.848c-6.25 0-11.312 4.984-11.312 11.127s5.062 11.122 11.312 11.122c6.245 0 11.307-4.979 11.307-11.122-0.005-6.143-5.067-11.118-11.307-11.127zM16.242 26.041c-5.653 0-10.235-4.509-10.235-10.065 0-5.561 4.582-10.065 10.235-10.065 5.648 0 10.23 4.504 10.23 10.065-0.005 5.556-4.582 10.061-10.23 10.065z"></path>
<path  d="M11.011 20.369l9.697-9.537 0.761 0.752-9.697 9.537-0.761-0.752z"></path>
<path  d="M19.471 17.033c-1.188 0-2.153 0.95-2.153 2.119 0 1.173 0.965 2.124 2.153 2.124s2.153-0.95 2.153-2.124c0-1.169-0.965-2.119-2.153-2.119zM19.471 20.213c-0.596 0-1.076-0.475-1.076-1.062 0-0.582 0.48-1.057 1.076-1.057s1.076 0.475 1.076 1.057c0 0.587-0.48 1.062-1.076 1.062z"></path>
<path  d="M13.008 14.914c1.193 0 2.153-0.945 2.153-2.119 0-1.168-0.96-2.119-2.153-2.119-1.188 0-2.153 0.95-2.153 2.119 0 1.173 0.965 2.119 2.153 2.119zM13.008 11.738c0.596 0 1.076 0.475 1.076 1.057 0 0.587-0.48 1.062-1.076 1.062s-1.076-0.475-1.076-1.062c0-0.582 0.48-1.057 1.076-1.057z"></path>
</symbol>
<symbol id="icon-finger" viewBox="0 0 30 32">
<path  d="M9.153 5.563c-0.258 0-0.464 0.222-0.464 0.5 0 0.603-0.46 1.095-1.022 1.095s-1.022-0.492-1.022-1.095c0-0.607 0.46-1.099 1.022-1.099 0.254 0 0.464-0.226 0.464-0.5s-0.209-0.5-0.464-0.5c-1.075 0-1.949 0.944-1.949 2.1 0 1.153 0.874 2.096 1.949 2.096s1.949-0.944 1.949-2.096c0-0.279-0.209-0.5-0.464-0.5z"></path>
<path  d="M9.153 11.422c-0.258 0-0.464 0.226-0.464 0.501 0 0.607-0.46 1.099-1.022 1.099s-1.022-0.492-1.022-1.099c0-0.607 0.46-1.099 1.022-1.099 0.254 0 0.464-0.222 0.464-0.501 0-0.275-0.209-0.496-0.464-0.496-1.075 0-1.949 0.94-1.949 2.096s0.874 2.096 1.949 2.096c1.075 0 1.949-0.94 1.949-2.096 0-0.275-0.209-0.501-0.464-0.501z"></path>
<path  d="M16.689 12.841h-3.467c-0.254 0-0.464 0.226-0.464 0.501s0.209 0.501 0.464 0.501h3.467c0.258 0 0.464-0.226 0.464-0.501s-0.205-0.501-0.464-0.501z"></path>
<path  d="M16.689 10.712h-3.467c-0.254 0-0.464 0.222-0.464 0.501 0 0.275 0.209 0.496 0.464 0.496h3.467c0.258 0 0.464-0.222 0.464-0.496 0-0.279-0.205-0.501-0.464-0.501z"></path>
<path  d="M15.7 18.704h-2.478c-0.254 0-0.464 0.222-0.464 0.496 0 0.279 0.209 0.5 0.464 0.5h2.478c0.254 0 0.464-0.222 0.464-0.5 0-0.275-0.209-0.496-0.464-0.496z"></path>
<path  d="M16.689 16.57h-3.467c-0.254 0-0.464 0.226-0.464 0.5s0.209 0.5 0.464 0.5h3.467c0.258 0 0.464-0.226 0.464-0.5s-0.205-0.5-0.464-0.5z"></path>
<path  d="M21.145 6.983h-7.922c-0.254 0-0.464 0.222-0.464 0.5 0 0.275 0.209 0.496 0.464 0.496h7.922c0.258 0 0.464-0.222 0.464-0.496 0-0.279-0.205-0.5-0.464-0.5z"></path>
<path  d="M19.167 4.853h-5.945c-0.254 0-0.464 0.222-0.464 0.496 0 0.279 0.209 0.5 0.464 0.5h5.945c0.254 0 0.464-0.222 0.464-0.5 0-0.275-0.209-0.496-0.464-0.496z"></path>
<path  d="M9.153 17.28c-0.258 0-0.464 0.226-0.464 0.5 0 0.607-0.46 1.099-1.022 1.099s-1.022-0.492-1.022-1.099c0-0.603 0.46-1.099 1.022-1.099 0.254 0 0.464-0.222 0.464-0.496 0-0.279-0.209-0.501-0.464-0.501-1.075 0-1.949 0.94-1.949 2.096s0.874 2.096 1.949 2.096c1.075 0 1.949-0.939 1.949-2.096 0-0.275-0.209-0.5-0.464-0.5z"></path>
<path  d="M23.992 0h-22.084c-1.054 0-1.908 0.702-1.908 1.563v22.371c0 0.866 0.853 1.567 1.908 1.567h11.040c0.336 0 0.611-0.226 0.611-0.5s-0.275-0.5-0.611-0.5h-11.040c-0.382 0-0.693-0.25-0.693-0.566v-22.371c0-0.312 0.312-0.566 0.693-0.566h22.084c0.382 0 0.689 0.254 0.689 0.566v16.513c0 0.275 0.275 0.5 0.611 0.5s0.607-0.226 0.607-0.5v-16.513c0-0.862-0.853-1.563-1.908-1.563z"></path>
<path  d="M28.829 20.25c-0.431-0.045-0.862 0.086-1.202 0.365-0.275-0.492-0.738-0.841-1.272-0.898-0.435-0.045-0.866 0.086-1.206 0.365-0.271-0.492-0.734-0.841-1.272-0.898-0.328-0.033-0.656 0.033-0.948 0.193v-6.359c0-0.517-0.205-1.013-0.558-1.358-0.357-0.349-0.837-0.517-1.317-0.464-0.857 0.090-1.526 0.923-1.526 1.895v6.375l-1.366 1.469c-0.726 0.779-1.017 1.887-0.784 2.962l1.038 4.738c0.418 1.916 1.99 3.257 3.824 3.257h4.189c2.166 0 3.93-1.895 3.93-4.23v-5.514c0-0.972-0.673-1.809-1.53-1.899zM29.428 27.664c0 1.78-1.346 3.233-2.999 3.233h-4.189c-1.399 0-2.601-1.026-2.921-2.49l-1.038-4.738c-0.16-0.734 0.041-1.493 0.537-2.027l0.71-0.759v1.723c0 0.275 0.205 0.5 0.464 0.5 0.254 0 0.464-0.226 0.464-0.5v-9.514c0-0.464 0.304-0.862 0.693-0.903 0.222-0.025 0.435 0.049 0.599 0.209 0.16 0.16 0.254 0.382 0.254 0.62v8.788c0 0.275 0.209 0.5 0.464 0.5 0.258 0 0.464-0.226 0.464-0.5v-0.8c0-0.234 0.094-0.459 0.254-0.615 0.164-0.16 0.377-0.234 0.603-0.209 0.386 0.041 0.689 0.439 0.689 0.903v1.255c0 0.275 0.209 0.5 0.468 0.5 0.254 0 0.464-0.226 0.464-0.5v-0.8c0-0.234 0.090-0.459 0.254-0.615 0.164-0.16 0.377-0.238 0.599-0.213 0.39 0.045 0.693 0.439 0.693 0.907v1.255c0 0.275 0.209 0.5 0.464 0.5s0.464-0.226 0.464-0.5v-0.8c0-0.234 0.094-0.459 0.254-0.619 0.164-0.156 0.377-0.234 0.603-0.209 0.386 0.041 0.689 0.439 0.689 0.907v5.514z"></path>
</symbol>
<symbol id="icon-delivery" viewBox="0 0 49 32">
<path  d="M45.701 13.563l-1.243-5.237c0.341-0.080 0.597-0.395 0.597-0.779v-0.843c0-1.835-1.419-3.328-3.157-3.328h-5.659v-1.744c0-0.901-0.699-1.632-1.557-1.632h-28.859c-0.859 0-1.552 0.731-1.552 1.632v14.368c0 0.437 0.336 0.789 0.752 0.789s0.752-0.352 0.752-0.789v-14.368c0-0.027 0.021-0.048 0.048-0.048h28.859c0.027 0 0.053 0.021 0.053 0.048v14.368c0 0.437 0.336 0.789 0.752 0.789 0.411 0 0.747-0.352 0.747-0.789v-0.901h8.869c0 0 0 0 0 0s0 0 0.005 0c1.088 0 2.016 0.757 2.336 1.797h-2.341c-0.411 0-0.752 0.352-0.752 0.789v1.691c0 1.371 1.056 2.485 2.357 2.485h0.853v3.483h-1.968c-0.645-1.963-2.416-3.381-4.496-3.381s-3.856 1.419-4.501 3.381h-0.363v-5.968c0-0.437-0.336-0.789-0.747-0.789-0.416 0-0.752 0.352-0.752 0.789v5.968h-15.595c-0.645-1.963-2.416-3.381-4.501-3.381-2.080 0-3.851 1.419-4.496 3.381h-4.32c-0.027 0-0.048-0.021-0.048-0.053v-1.744h3.253c0.416 0 0.752-0.352 0.752-0.789s-0.336-0.795-0.752-0.795h-7.216c-0.411 0-0.747 0.357-0.747 0.795s0.336 0.789 0.747 0.789h2.459v1.744c0 0.901 0.693 1.637 1.552 1.637h4.059c0 0.016 0 0.037 0 0.053 0 2.768 2.133 5.019 4.757 5.019 2.629 0 4.763-2.251 4.763-5.019 0-0.016 0-0.037 0-0.053h16.939c-0.005 0.016-0.005 0.037-0.005 0.053 0 2.768 2.139 5.019 4.763 5.019s4.757-2.251 4.757-5.019c0-0.016 0-0.037 0-0.053h2.459c0.411 0 0.752-0.352 0.752-0.795v-8.448c0-2.085-1.461-3.819-3.365-4.123zM36.24 4.96h5.659c0.912 0 1.653 0.784 1.653 1.744v0.053h-7.312v-1.797zM36.24 13.515v-5.173h6.677l1.227 5.173h-7.904zM14.64 30.416c-1.792 0-3.253-1.541-3.253-3.435s1.461-3.435 3.253-3.435c1.797 0 3.259 1.541 3.259 3.435s-1.461 3.435-3.259 3.435zM41.099 30.416c-1.797 0-3.259-1.541-3.259-3.435s1.461-3.435 3.259-3.435c1.792 0 3.253 1.541 3.253 3.435s-1.461 3.435-3.253 3.435zM47.563 20.277h-0.853c-0.469 0-0.853-0.405-0.853-0.901v-0.896h1.707v1.797z"></path>
<path  d="M14.667 25.6c-0.736 0-1.333 0.597-1.333 1.333 0 0.731 0.597 1.333 1.333 1.333 0.731 0 1.333-0.603 1.333-1.333 0-0.736-0.603-1.333-1.333-1.333z"></path>
<path  d="M41.12 25.6c-0.736 0-1.333 0.597-1.333 1.333 0 0.731 0.597 1.333 1.333 1.333s1.333-0.603 1.333-1.333c0-0.736-0.597-1.333-1.333-1.333z"></path>
<path  d="M18.373 19.733h-11.227c-0.411 0-0.747 0.357-0.747 0.805s0.336 0.811 0.747 0.811h11.227c0.416 0 0.752-0.363 0.752-0.811s-0.336-0.805-0.752-0.805z"></path>
<path  d="M10.368 17.6h-9.621c-0.411 0-0.747 0.357-0.747 0.805s0.336 0.811 0.747 0.811h9.621c0.416 0 0.752-0.363 0.752-0.811s-0.336-0.805-0.752-0.805z"></path>
<path  d="M27.2 7.995c-0.293-0.315-0.768-0.315-1.067 0l-6.683 7.195-3.477-3.744c-0.293-0.315-0.768-0.315-1.061 0-0.293 0.32-0.293 0.827 0 1.147l4.011 4.309c0.144 0.16 0.336 0.24 0.528 0.24s0.384-0.080 0.533-0.24l7.216-7.76c0.293-0.315 0.293-0.827 0-1.147z"></path>
</symbol>
<symbol id="icon-checked" viewBox="0 0 32 32">
<path   d="M31.61 17.595c-0.18-0.64-0.345-1.245-0.345-1.795 0-0.555 0.165-1.16 0.345-1.8 0.285-1.015 0.58-2.070 0.225-3.090-0.365-1.065-1.27-1.765-2.15-2.435-0.525-0.405-1.025-0.785-1.345-1.205-0.33-0.425-0.56-0.995-0.805-1.6-0.405-0.99-0.825-2.020-1.76-2.66-0.92-0.635-2.065-0.7-3.175-0.755-0.69-0.040-1.345-0.075-1.89-0.24-0.515-0.16-1.045-0.485-1.605-0.83-0.9-0.555-1.925-1.185-3.11-1.185-1.18 0-2.205 0.63-3.105 1.185-0.56 0.345-1.090 0.675-1.605 0.83-0.545 0.17-1.2 0.205-1.89 0.24-1.11 0.060-2.255 0.12-3.18 0.755-0.93 0.645-1.35 1.67-1.755 2.66-0.245 0.605-0.48 1.175-0.805 1.605-0.325 0.42-0.82 0.8-1.345 1.205-0.88 0.67-1.785 1.365-2.15 2.43-0.355 1.025-0.060 2.075 0.225 3.095 0.18 0.64 0.345 1.24 0.345 1.795 0 0.55-0.165 1.155-0.345 1.795-0.285 1.020-0.58 2.070-0.225 3.095 0.365 1.065 1.27 1.76 2.15 2.43 0.525 0.405 1.020 0.785 1.345 1.205 0.33 0.425 0.56 1 0.805 1.6 0.405 0.995 0.825 2.020 1.76 2.665 0.92 0.635 2.065 0.695 3.175 0.755 0.69 0.035 1.345 0.070 1.89 0.24 0.515 0.155 1.040 0.48 1.6 0.825 0.905 0.56 1.93 1.19 3.11 1.19 1.185 0 2.21-0.63 3.115-1.19 0.56-0.345 1.085-0.67 1.6-0.825 0.545-0.17 1.2-0.205 1.89-0.24 1.11-0.060 2.26-0.12 3.175-0.755 0.94-0.645 1.355-1.675 1.76-2.665 0.245-0.605 0.475-1.175 0.805-1.6 0.32-0.42 0.82-0.8 1.345-1.205 0.88-0.67 1.785-1.365 2.15-2.43 0.355-1.025 0.060-2.075-0.225-3.095zM30.52 20.25c-0.23 0.67-0.94 1.215-1.685 1.785-0.575 0.44-1.17 0.895-1.605 1.46-0.44 0.575-0.72 1.255-0.985 1.92-0.345 0.84-0.67 1.635-1.265 2.050-0.595 0.41-1.495 0.455-2.45 0.505-0.75 0.040-1.52 0.080-2.235 0.3-0.68 0.21-1.315 0.6-1.925 0.975-0.815 0.505-1.59 0.98-2.375 0.98s-1.555-0.475-2.37-0.98c-0.61-0.375-1.24-0.765-1.925-0.975-0.715-0.22-1.485-0.26-2.235-0.3-0.955-0.050-1.855-0.1-2.45-0.505-0.595-0.415-0.92-1.21-1.265-2.050-0.265-0.665-0.545-1.345-0.985-1.92-0.435-0.565-1.030-1.020-1.605-1.46-0.745-0.575-1.455-1.115-1.685-1.785-0.215-0.625 0.010-1.435 0.25-2.29 0.195-0.7 0.395-1.425 0.395-2.16 0-0.74-0.2-1.465-0.395-2.165-0.24-0.855-0.465-1.665-0.25-2.29 0.23-0.67 0.94-1.21 1.685-1.785 0.575-0.44 1.17-0.895 1.6-1.46 0.445-0.575 0.725-1.255 0.995-1.92 0.34-0.84 0.665-1.635 1.26-2.045s1.495-0.46 2.455-0.51c0.745-0.040 1.515-0.080 2.23-0.3 0.685-0.21 1.315-0.6 1.925-0.975 0.815-0.505 1.585-0.98 2.37-0.98s1.56 0.475 2.375 0.98c0.61 0.38 1.24 0.765 1.925 0.975 0.715 0.22 1.485 0.26 2.23 0.3 0.96 0.050 1.86 0.1 2.455 0.51s0.92 1.205 1.26 2.045c0.27 0.665 0.55 1.35 0.99 1.925 0.435 0.56 1.030 1.015 1.605 1.455 0.745 0.575 1.455 1.115 1.685 1.79 0.215 0.625-0.015 1.43-0.25 2.29-0.195 0.7-0.4 1.42-0.4 2.16 0 0.735 0.2 1.46 0.4 2.16 0.24 0.855 0.465 1.665 0.25 2.29z"></path>
<path   d="M15.995 5.495c-5.75 0-10.43 4.62-10.43 10.305 0 5.68 4.68 10.305 10.43 10.305 5.755 0 10.435-4.625 10.435-10.305 0-5.685-4.68-10.305-10.435-10.305zM15.995 24.73c-4.985 0-9.040-4.010-9.040-8.93 0-4.925 4.055-8.935 9.040-8.935 2.575 0 4.89 1.075 6.54 2.78l-6.63 9.215-3.59-3.55c-0.27-0.265-0.71-0.265-0.985 0-0.27 0.27-0.27 0.705 0 0.975l4.175 4.12c0.13 0.13 0.31 0.2 0.49 0.2 0.020 0 0.040 0 0.060 0 0.205-0.020 0.39-0.125 0.51-0.29l6.885-9.565c1 1.435 1.59 3.175 1.59 5.050 0 4.92-4.055 8.93-9.045 8.93z"></path>
</symbol>
<symbol id="icon-buy" viewBox="0 0 33 32">
<path fill="none" stroke="#000" style="stroke: var(--color7, #000)" stroke-linejoin="miter" stroke-linecap="butt" stroke-miterlimit="4" stroke-width="1.3333" d="M6.329 8.676h20.080c0.578 0 1.004 0.551 0.862 1.111l-1.689 6.613c-0.302 1.173-1.369 2-2.587 2h-14.978M0 3.102h4.133c0.871 0 1.618 0.64 1.751 1.502l2.684 16.862c0.142 0.862 0.88 1.502 1.76 1.502lNaNNaN"></path>
<path fill="none" stroke="#000" style="stroke: var(--color7, #000)" stroke-linejoin="miter" stroke-linecap="butt" stroke-miterlimit="4" stroke-width="1.3333" d="M14.017 28.68c0 1.134-0.875 2.053-1.955 2.053s-1.955-0.919-1.955-2.053c0-1.134 0.875-2.053 1.955-2.053s1.955 0.919 1.955 2.053z"></path>
<path fill="none" stroke="#000" style="stroke: var(--color7, #000)" stroke-linejoin="miter" stroke-linecap="butt" stroke-miterlimit="4" stroke-width="1.3333" d="M25.552 28.68c0 1.134-0.875 2.053-1.955 2.053s-1.955-0.919-1.955-2.053c0-1.134 0.875-2.053 1.955-2.053s1.955 0.919 1.955 2.053z"></path>
<path fill="#e8aa31" style="fill: var(--color8, #e8aa31)" d="M32.889 6.222c0 3.436-2.786 6.222-6.222 6.222s-6.222-2.786-6.222-6.222c0-3.436 2.786-6.222 6.222-6.222s6.222 2.786 6.222 6.222z"></path>
<path fill="#fff" style="fill: var(--color2, #fff)" d="M25.591 8.782q0.356 0.16 0.782 0.16 0.391 0 0.738-0.142 0.151-0.062 0.302-0.16 0.027-0.018 0.053-0.036 0.418-0.302 0.667-0.844 0.267-0.578 0.267-1.369 0-0.782-0.267-1.36-0.249-0.542-0.667-0.844-0.027-0.018-0.053-0.036-0.151-0.098-0.302-0.16-0.347-0.142-0.738-0.142-0.427 0-0.782 0.16-0.142 0.053-0.267 0.142-0.027 0.018-0.053 0.036-0.418 0.302-0.676 0.844-0.258 0.578-0.258 1.36 0 0.791 0.258 1.369 0.258 0.542 0.676 0.844 0.027 0.018 0.053 0.036 0.124 0.089 0.267 0.142zM26.889 8.196q-0.231 0.116-0.516 0.116-0.302 0-0.542-0.124t-0.427-0.364q-0.356-0.498-0.356-1.431 0-0.924 0.356-1.413 0.187-0.249 0.436-0.373 0.231-0.124 0.533-0.124 0.284 0 0.516 0.116 0.249 0.124 0.436 0.382 0.364 0.489 0.364 1.413 0 0.933-0.364 1.431-0.187 0.249-0.436 0.373z"></path>
</symbol>
<symbol id="icon-love" viewBox="0 0 33 32">
<path d="M23.822 0c-2.833 0-5.476 1.268-7.23 3.401-1.766-2.133-4.409-3.401-7.241-3.401-5.156 0-9.351 4.172-9.351 9.304 0 4.018 2.406 8.676 7.159 13.819 3.662 3.97 7.633 7.040 8.77 7.881l0.664 0.498 0.652-0.498c1.126-0.841 5.108-3.911 8.77-7.87 4.753-5.156 7.17-9.813 7.17-13.831 0-5.132-4.207-9.304-9.363-9.304zM24.403 21.653c-3.010 3.259-6.246 5.902-7.81 7.111-1.576-1.209-4.812-3.852-7.822-7.111-4.314-4.67-6.59-8.936-6.59-12.35 0-3.935 3.224-7.135 7.17-7.135 2.607 0 5.013 1.41 6.281 3.686l0.96 1.719 0.948-1.719c1.268-2.276 3.674-3.686 6.281-3.686 3.947 0 7.17 3.2 7.17 7.135 0 3.413-2.276 7.68-6.59 12.35z"></path>
</symbol>
<symbol id="icon-_3" viewBox="0 0 22 32">
<path d="M10.88 0c-6.003 0-10.88 4.928-10.88 10.982 0 2.048 0.55 4.045 1.613 5.773l8.64 14.054c0.166 0.269 0.461 0.435 0.768 0.435 0 0 0.013 0 0.013 0 0.32 0 0.602-0.166 0.768-0.448l8.422-14.182c0.998-1.702 1.536-3.648 1.536-5.632 0-6.054-4.89-10.982-10.88-10.982zM18.662 15.667l-7.654 12.902-7.846-12.774c-0.883-1.446-1.37-3.11-1.37-4.813 0-5.056 4.083-9.165 9.088-9.165 4.992 0 9.062 4.109 9.062 9.165 0 1.651-0.448 3.277-1.28 4.685z"></path>
<path d="M10.867 4.621c-3.328 0-6.042 2.598-6.042 5.786 0 3.174 2.662 5.798 6.042 5.798 3.418 0 6.042-2.662 6.042-5.798 0-3.187-2.701-5.786-6.042-5.786zM10.867 14.285c-2.227 0-4.045-1.741-4.045-3.878 0-2.125 1.83-3.866 4.045-3.866 2.227 0 4.032 1.741 4.032 3.866 0 2.112-1.766 3.878-4.032 3.878z"></path>
</symbol>
<symbol id="icon-xz1" viewBox="0 0 35 32">
<path stroke-linejoin="miter" stroke-linecap="butt" stroke-miterlimit="4" stroke-width="2.6667" d="M22.667 12c0 5.891-4.776 10.667-10.667 10.667s-10.667-4.776-10.667-10.667c0-5.891 4.776-10.667 10.667-10.667s10.667 4.776 10.667 10.667z"></path>
<path stroke-linejoin="miter" stroke-linecap="butt" stroke-miterlimit="4" stroke-width="2.6667" d="M19.613 17.728l12.412 12.314"></path>
</symbol>
<symbol id="icon-logo" viewBox="0 0 141 32">
<path d="M71.375 28.54c0 0 0.841-0.409 2.307-0.953 0.759 0.365 2.419 1.116 4.026 1.578 2.18 0.633 3.624 0.536 5.656 0.536s4.934-0.342 4.934-0.342c0 0-0.439-1.593-0.484-2.753-0.052-1.161-0.052-1.354-0.052-1.354s-0.432 1.645-0.335 2.515c0.097 0.871 0.097 1.161 0.097 1.161s-3.818 0.387-6.526 0.097c-2.709-0.29-4.353-0.58-5.514-0.967-0.633-0.216-1.243-0.394-1.667-0.521 2.054-0.752 5.261-1.756 9.116-2.329 6.765-1.020 5.41-0.677 5.41-0.677s0.149-0.29 1.020-0.387c0.871-0.097 9.764-0.536 12.517-0.342 2.761 0.194 10.344 0.58 11.46 1.31 1.109 0.722 1.548 1.451 1.206 3.237-0.335 1.786-1.012 3.527-1.645 3.14-0.625-0.387-2.754-2.032-4.785-2.322s-4.249-0.238-5.172 0c-0.915 0.246-2.463 1.213-3.193 0.967-0.722-0.238-2.173-1.593-3.334-1.109s-1.206 0.625-1.741 1.302c-0.528 0.677-1.258 1.451-1.831 0.729-0.58-0.729-1.645-1.064-2.567-1.116-0.915-0.045-1.741 0.246-1.98 0.484-0.246 0.246-0.58 0.729-0.58 0.729s-1.496-0.387-3.237-0.194c-1.741 0.194-4.74 0.335-6.772-0.052s-6.333-2.366-6.333-2.366zM89.652 29.12c0 0 1.935-0.342 2.657 0.194 0.729 0.528 0.871 0.967 2.173-0.097 1.31-1.064 2.128-1.838 3.58-1.064s2.128 1.258 3.527 0.528c1.406-0.722 4.45-1.496 7.010-0.432s4.547 2.753 4.934 1.689c0.387-1.064 0.58-2.225-1.406-2.657-1.98-0.432-4.927-0.915-7.635-0.484s-3.193 1.689-4.301 1.354c-1.116-0.342-2.322-1.354-3.676-0.826-1.354 0.536-2.515 2.18-3.624 1.645-1.109-0.528-1.883-1.012-2.56-0.677-0.677 0.342-0.677 0.826-0.677 0.826z"></path>
<path d="M1.131 0.253v7.189h0.327c0.030-0.417 0.089-0.833 0.194-1.243 0.104-0.424 0.238-0.826 0.402-1.213s0.35-0.729 0.558-1.049c0.208-0.305 0.439-0.558 0.685-0.752 0.179-0.149 0.409-0.29 0.692-0.424 0.283-0.141 0.625-0.253 1.020-0.335 0.402-0.089 0.856-0.134 1.369-0.134h5.41l-11.371 15.65 0.052 0.156h16.439v-8.26h-0.327c-0.030 0.469-0.074 0.945-0.141 1.421-0.074 0.484-0.171 0.945-0.298 1.399-0.134 0.461-0.298 0.878-0.506 1.273-0.201 0.387-0.447 0.722-0.744 1.005-0.365 0.342-0.759 0.595-1.168 0.759-0.409 0.156-0.819 0.26-1.228 0.305s-0.796 0.060-1.168 0.060h-5.611l11.319-15.658-0.127-0.149h-15.777zM22.035 15.241c0 0.208-0.007 0.424-0.030 0.64-0.022 0.223-0.082 0.446-0.171 0.655-0.089 0.216-0.238 0.417-0.439 0.595-0.194 0.156-0.402 0.275-0.647 0.357-0.238 0.089-0.484 0.141-0.737 0.179s-0.499 0.060-0.729 0.074l-0.439 0.022v0.335h17.898v-7.754h-0.327l-0.082 0.796c-0.037 0.417-0.097 0.834-0.171 1.258-0.082 0.424-0.208 0.826-0.387 1.22-0.179 0.402-0.447 0.767-0.789 1.116-0.104 0.104-0.268 0.238-0.469 0.387s-0.461 0.29-0.781 0.432c-0.32 0.149-0.7 0.268-1.146 0.357-0.447 0.097-0.967 0.141-1.555 0.149h-5.842v-12.956c0-0.149 0.007-0.335 0.030-0.551 0.022-0.223 0.082-0.454 0.171-0.692 0.097-0.238 0.238-0.447 0.439-0.64 0.186-0.164 0.394-0.283 0.64-0.365s0.499-0.141 0.752-0.179c0.26-0.030 0.499-0.060 0.722-0.067l0.439-0.030v-0.327h-9.54v0.327l0.439 0.030c0.223 0.007 0.469 0.037 0.722 0.067 0.26 0.037 0.506 0.097 0.752 0.179s0.461 0.201 0.64 0.365c0.201 0.194 0.35 0.402 0.439 0.64s0.149 0.469 0.171 0.692c0.022 0.216 0.030 0.402 0.030 0.551v12.138zM46.147 0l-5.552 13.403c-0.194 0.439-0.357 0.811-0.514 1.124-0.156 0.305-0.283 0.558-0.402 0.759-0.112 0.201-0.208 0.365-0.283 0.491-0.082 0.134-0.201 0.305-0.342 0.491-0.134 0.186-0.313 0.372-0.536 0.573-0.208 0.186-0.461 0.365-0.767 0.514-0.298 0.156-0.64 0.268-1.034 0.335l-0.484 0.074v0.335h9.154v-0.335l-0.64-0.052c-0.253-0.015-0.521-0.060-0.804-0.127s-0.551-0.171-0.804-0.313c-0.26-0.141-0.469-0.32-0.64-0.551-0.134-0.194-0.223-0.417-0.283-0.685-0.052-0.253-0.067-0.521-0.045-0.804 0.022-0.268 0.082-0.521 0.179-0.759l0.967-2.367h6.526l1.146 2.806c0.067 0.156 0.127 0.32 0.179 0.514 0.045 0.186 0.074 0.372 0.074 0.551 0 0.38-0.074 0.685-0.216 0.9-0.141 0.231-0.327 0.394-0.543 0.506-0.119 0.067-0.26 0.119-0.417 0.164-0.164 0.045-0.357 0.082-0.595 0.112s-0.536 0.052-0.878 0.082l-0.38 0.022v0.335h9.994v-0.335l-0.409-0.022c-0.305-0.022-0.603-0.067-0.893-0.156-0.29-0.082-0.558-0.186-0.811-0.313-0.246-0.127-0.454-0.275-0.618-0.424-0.149-0.149-0.29-0.342-0.432-0.58-0.134-0.246-0.29-0.566-0.461-0.96s-0.387-0.9-0.633-1.518l-5.641-13.79h-2.166zM49.206 10.322h-5.246l2.597-6.274h0.052l2.597 6.274zM65.905 2.292h1.89c0.149-0.007 0.335 0 0.558 0.022 0.223 0.015 0.469 0.052 0.729 0.112 0.268 0.052 0.528 0.141 0.789 0.26 0.268 0.119 0.521 0.29 0.752 0.499 0.208 0.193 0.402 0.454 0.58 0.781 0.164 0.327 0.32 0.685 0.447 1.079 0.134 0.402 0.238 0.804 0.32 1.213s0.134 0.796 0.156 1.154h0.335v-7.159h-16.268v7.159h0.335c0.022-0.357 0.074-0.744 0.156-1.154s0.186-0.811 0.313-1.213c0.134-0.394 0.283-0.752 0.461-1.079 0.164-0.327 0.357-0.588 0.573-0.781 0.231-0.208 0.476-0.38 0.744-0.499s0.528-0.208 0.789-0.26c0.268-0.060 0.506-0.097 0.737-0.112 0.223-0.022 0.409-0.030 0.558-0.022h1.883v12.949c0.007 0.149 0 0.335-0.030 0.558-0.015 0.223-0.074 0.446-0.164 0.685s-0.238 0.454-0.439 0.647c-0.186 0.156-0.394 0.275-0.64 0.357-0.246 0.089-0.499 0.141-0.752 0.179-0.26 0.037-0.499 0.052-0.729 0.074l-0.432 0.022v0.335h9.533v-0.335l-0.432-0.022c-0.223-0.022-0.469-0.037-0.722-0.074-0.26-0.037-0.506-0.089-0.759-0.179-0.238-0.082-0.454-0.201-0.633-0.357-0.201-0.194-0.342-0.409-0.439-0.647-0.089-0.238-0.149-0.461-0.171-0.685s-0.030-0.409-0.030-0.558v-12.949zM98.381 0.253h-7.643l-4.77 12.108h-0.074l-4.77-12.108h-7.948v0.327l0.432 0.030c0.223 0.007 0.469 0.037 0.722 0.067 0.26 0.037 0.506 0.097 0.752 0.179s0.461 0.201 0.64 0.365c0.201 0.194 0.35 0.402 0.439 0.64s0.149 0.469 0.171 0.692c0.022 0.216 0.030 0.402 0.030 0.551v11.632c0 0.194-0.007 0.432-0.037 0.707-0.022 0.283-0.082 0.566-0.179 0.856-0.089 0.283-0.231 0.521-0.424 0.729-0.164 0.164-0.38 0.29-0.625 0.394-0.253 0.104-0.513 0.179-0.774 0.231-0.268 0.052-0.506 0.082-0.714 0.089l-0.432 0.022v0.335h8.588v-0.335l-0.432-0.022c-0.208-0.007-0.447-0.037-0.714-0.089s-0.521-0.127-0.774-0.231c-0.253-0.104-0.461-0.231-0.633-0.394-0.149-0.156-0.268-0.342-0.357-0.551-0.089-0.216-0.149-0.432-0.186-0.655s-0.067-0.432-0.074-0.625c-0.015-0.194-0.015-0.342-0.015-0.461v-12.011h0.074l6.065 15.375h1.176l6.065-15.375h0.082v12.517c0 0.149-0.007 0.335-0.030 0.558s-0.082 0.446-0.171 0.685c-0.089 0.238-0.238 0.454-0.439 0.647-0.186 0.156-0.394 0.275-0.64 0.357-0.246 0.089-0.499 0.141-0.752 0.179-0.26 0.037-0.499 0.052-0.722 0.074l-0.439 0.022v0.335h9.533v-0.335l-0.432-0.022c-0.223-0.022-0.469-0.037-0.722-0.074-0.26-0.037-0.506-0.089-0.752-0.179-0.246-0.082-0.461-0.201-0.64-0.357-0.201-0.194-0.342-0.409-0.439-0.647-0.089-0.238-0.149-0.461-0.171-0.685s-0.030-0.409-0.030-0.558v-12.138c0-0.149 0.007-0.335 0.030-0.551 0.022-0.223 0.082-0.454 0.171-0.692 0.097-0.238 0.238-0.447 0.439-0.64 0.179-0.164 0.394-0.283 0.64-0.365s0.491-0.141 0.752-0.179c0.253-0.030 0.499-0.060 0.722-0.067l0.432-0.030v-0.327zM107.743 0l-5.559 13.403c-0.186 0.439-0.357 0.811-0.513 1.124-0.149 0.305-0.283 0.558-0.394 0.759-0.119 0.201-0.216 0.365-0.29 0.491-0.082 0.134-0.194 0.305-0.335 0.491s-0.32 0.372-0.536 0.573c-0.216 0.186-0.469 0.365-0.766 0.514-0.298 0.156-0.647 0.268-1.042 0.335l-0.484 0.074v0.335h9.153v-0.335l-0.64-0.052c-0.246-0.015-0.513-0.060-0.804-0.127-0.283-0.067-0.551-0.171-0.804-0.313s-0.469-0.32-0.633-0.551c-0.134-0.194-0.231-0.417-0.283-0.685-0.052-0.253-0.074-0.521-0.045-0.804 0.022-0.268 0.082-0.521 0.171-0.759l0.967-2.367h6.526l1.146 2.806c0.074 0.156 0.126 0.32 0.179 0.514 0.052 0.186 0.074 0.372 0.082 0.551-0.007 0.38-0.074 0.685-0.223 0.9-0.141 0.231-0.32 0.394-0.543 0.506-0.112 0.067-0.253 0.119-0.417 0.164s-0.357 0.082-0.595 0.112c-0.238 0.030-0.528 0.052-0.871 0.082l-0.387 0.022v0.335h9.994v-0.335l-0.409-0.022c-0.298-0.022-0.595-0.067-0.893-0.156-0.29-0.082-0.558-0.186-0.804-0.313-0.253-0.127-0.454-0.275-0.625-0.424-0.141-0.149-0.29-0.342-0.424-0.58-0.141-0.246-0.298-0.566-0.469-0.96s-0.38-0.9-0.633-1.518l-5.633-13.79h-2.166zM110.802 10.322h-5.254l2.605-6.274h0.045l2.605 6.274zM118.884 0.253v0.327l0.484 0.104c0.313 0.074 0.625 0.208 0.953 0.402s0.64 0.424 0.945 0.685c0.305 0.253 0.573 0.514 0.804 0.774l5.886 6.549-4.971 5.79c-0.082 0.104-0.208 0.231-0.357 0.387-0.156 0.156-0.327 0.313-0.506 0.484-0.179 0.164-0.35 0.313-0.513 0.454s-0.298 0.253-0.409 0.335c-0.394 0.29-0.826 0.543-1.295 0.752-0.461 0.208-0.923 0.365-1.377 0.469v0.335h10.017v-0.335l-0.61-0.052c-0.484-0.037-0.848-0.097-1.116-0.156-0.26-0.074-0.432-0.119-0.513-0.149-0.186-0.067-0.357-0.149-0.513-0.268-0.164-0.112-0.298-0.246-0.402-0.424s-0.156-0.394-0.156-0.655c0-0.201 0.060-0.409 0.156-0.633 0.104-0.223 0.223-0.424 0.35-0.61 0.134-0.186 0.246-0.335 0.335-0.439l3.237-3.773 3.49 3.847c0.186 0.194 0.357 0.402 0.513 0.603 0.164 0.216 0.298 0.432 0.402 0.647s0.149 0.439 0.156 0.662c-0.007 0.246-0.074 0.454-0.208 0.625-0.134 0.156-0.313 0.29-0.528 0.394-0.238 0.112-0.506 0.201-0.811 0.253-0.298 0.052-0.603 0.089-0.9 0.104l-0.737 0.022v0.335h10.709v-0.335c-0.283-0.030-0.588-0.104-0.915-0.216-0.335-0.112-0.685-0.283-1.049-0.521-0.461-0.327-0.915-0.714-1.347-1.168-0.424-0.454-0.878-0.96-1.354-1.511l-5.433-6.065 3.438-3.981c0.253-0.283 0.506-0.58 0.781-0.908 0.275-0.32 0.566-0.633 0.886-0.945 0.305-0.305 0.647-0.58 1.012-0.819 0.223-0.149 0.476-0.29 0.752-0.417 0.275-0.134 0.566-0.246 0.863-0.342s0.588-0.171 0.886-0.208l0.506-0.082v-0.327h-10.247v0.327l0.64 0.052c0.469 0.037 0.848 0.104 1.146 0.201s0.528 0.208 0.692 0.335c0.186 0.141 0.32 0.29 0.394 0.461 0.082 0.179 0.119 0.365 0.112 0.588 0 0.253-0.037 0.476-0.112 0.677-0.067 0.201-0.149 0.38-0.253 0.528-0.104 0.156-0.201 0.29-0.298 0.394l-2.553 2.984-3.617-4.026c-0.134-0.156-0.231-0.29-0.283-0.409s-0.082-0.231-0.074-0.327c-0.007-0.201 0.045-0.387 0.149-0.58 0.104-0.186 0.29-0.35 0.566-0.491 0.134-0.060 0.283-0.119 0.461-0.164s0.365-0.082 0.543-0.112c0.186-0.030 0.35-0.052 0.499-0.060l0.588-0.052v-0.327h-9.89z"></path>
<path d="M0.365 26.5c0.104-0.067 0.231-0.134 0.357-0.194 0.134-0.052 0.275-0.104 0.424-0.141 0.149-0.030 0.298-0.052 0.447-0.052 0.216 0 0.394 0.037 0.551 0.112 0.164 0.067 0.283 0.171 0.372 0.313s0.134 0.313 0.134 0.514c0 0.149-0.037 0.29-0.104 0.424-0.074 0.127-0.171 0.238-0.298 0.342-0.127 0.097-0.275 0.171-0.439 0.231-0.171 0.052-0.35 0.082-0.543 0.082h-0.342v0.58h0.35c0.149 0 0.298 0.007 0.454 0.030 0.149 0.022 0.298 0.060 0.432 0.112s0.26 0.119 0.365 0.208c0.104 0.089 0.193 0.194 0.253 0.327 0.060 0.127 0.089 0.275 0.089 0.454 0 0.216-0.052 0.409-0.149 0.573-0.112 0.171-0.26 0.305-0.461 0.402-0.201 0.089-0.439 0.141-0.729 0.141-0.164 0-0.327-0.015-0.491-0.052-0.164-0.030-0.313-0.074-0.454-0.127-0.149-0.060-0.275-0.119-0.387-0.179l-0.194 0.595c0.223 0.134 0.469 0.231 0.737 0.29 0.26 0.067 0.528 0.097 0.796 0.089 0.216 0 0.424-0.015 0.633-0.060 0.208-0.037 0.402-0.104 0.58-0.186 0.186-0.089 0.342-0.201 0.484-0.335 0.134-0.134 0.246-0.29 0.32-0.476 0.082-0.194 0.119-0.409 0.119-0.647 0-0.29-0.067-0.536-0.193-0.744s-0.29-0.38-0.506-0.499c-0.216-0.127-0.461-0.208-0.737-0.238v-0.015c0.231-0.052 0.432-0.149 0.618-0.283 0.179-0.134 0.327-0.298 0.432-0.499 0.104-0.194 0.156-0.417 0.164-0.662-0.007-0.305-0.074-0.558-0.223-0.774-0.141-0.216-0.342-0.38-0.603-0.491s-0.558-0.171-0.9-0.171c-0.327 0-0.618 0.045-0.871 0.119-0.26 0.082-0.484 0.194-0.685 0.327l0.201 0.558zM5.098 25.6v2.478c0 0.238-0.007 0.484-0.015 0.729-0.015 0.253-0.037 0.491-0.067 0.729-0.037 0.231-0.089 0.447-0.156 0.633-0.074 0.194-0.164 0.342-0.283 0.461-0.067 0.067-0.164 0.134-0.268 0.194-0.112 0.060-0.231 0.097-0.35 0.119l0.097 0.61c0.112 0 0.223-0.015 0.342-0.045 0.104-0.022 0.208-0.060 0.313-0.104 0.097-0.037 0.179-0.082 0.253-0.134 0.164-0.112 0.298-0.253 0.409-0.424 0.104-0.179 0.194-0.372 0.253-0.595 0.067-0.216 0.112-0.454 0.141-0.7 0.037-0.246 0.052-0.499 0.067-0.759 0.007-0.26 0.015-0.521 0.007-0.774v-1.779h1.942v5.247h0.767v-5.886h-3.453zM12.904 29.634l0.633 1.853h0.811l-2.009-5.887h-0.908l-2.009 5.886h0.789l0.61-1.853h2.084zM10.977 29.038l0.58-1.704c0.060-0.179 0.112-0.357 0.156-0.536 0.052-0.179 0.097-0.357 0.141-0.528h0.015c0.045 0.171 0.089 0.342 0.134 0.521 0.052 0.179 0.104 0.365 0.171 0.551l0.588 1.697h-1.786zM16.327 31.486h0.774v-5.239h1.794v-0.647h-4.354v0.647h1.786v5.239zM21.924 25.496c-0.394 0-0.759 0.074-1.087 0.216-0.335 0.149-0.618 0.357-0.863 0.625-0.246 0.275-0.432 0.595-0.566 0.975s-0.208 0.804-0.208 1.273c0 0.447 0.067 0.856 0.194 1.22s0.313 0.677 0.543 0.945c0.238 0.268 0.514 0.469 0.841 0.61 0.32 0.141 0.677 0.216 1.072 0.216 0.298 0 0.588-0.037 0.856-0.127 0.275-0.082 0.528-0.216 0.752-0.38 0.231-0.171 0.424-0.38 0.595-0.625 0.164-0.253 0.298-0.543 0.387-0.871s0.141-0.692 0.141-1.094c0-0.439-0.067-0.841-0.186-1.206-0.127-0.365-0.305-0.677-0.536-0.945s-0.514-0.469-0.841-0.618c-0.32-0.141-0.685-0.216-1.094-0.216zM21.901 26.113c0.253 0 0.476 0.045 0.677 0.134s0.38 0.216 0.528 0.372c0.149 0.156 0.275 0.335 0.372 0.543 0.104 0.201 0.179 0.417 0.223 0.647 0.052 0.231 0.074 0.469 0.074 0.707 0 0.335-0.045 0.647-0.127 0.945-0.082 0.29-0.201 0.551-0.365 0.774s-0.357 0.402-0.595 0.528c-0.231 0.127-0.499 0.194-0.796 0.194-0.246 0-0.461-0.045-0.662-0.127s-0.372-0.201-0.528-0.35c-0.149-0.149-0.275-0.327-0.38-0.528s-0.186-0.417-0.238-0.655c-0.052-0.231-0.082-0.476-0.082-0.729 0-0.26 0.022-0.506 0.074-0.752 0.052-0.238 0.127-0.461 0.231-0.67 0.097-0.201 0.223-0.387 0.38-0.543 0.149-0.149 0.327-0.275 0.528-0.357 0.201-0.089 0.432-0.134 0.685-0.134zM24.923 25.6l1.95 3.981c0.037 0.067 0.060 0.127 0.067 0.179s-0.007 0.112-0.037 0.179c-0.052 0.104-0.104 0.216-0.179 0.335-0.067 0.112-0.149 0.223-0.246 0.32-0.097 0.104-0.201 0.186-0.32 0.253-0.119 0.060-0.26 0.097-0.409 0.097-0.067 0-0.119 0-0.164-0.007-0.052-0.007-0.089-0.015-0.127-0.022l-0.067 0.625c0.045 0.015 0.104 0.030 0.171 0.037 0.074 0.007 0.156 0.015 0.253 0.015 0.26 0 0.506-0.067 0.722-0.186s0.424-0.298 0.61-0.543c0.104-0.134 0.208-0.29 0.305-0.461 0.097-0.179 0.194-0.365 0.283-0.558s0.179-0.394 0.268-0.603c0.082-0.201 0.164-0.402 0.246-0.603l1.235-3.036h-0.804l-0.923 2.493c-0.067 0.208-0.134 0.402-0.194 0.58-0.060 0.171-0.112 0.335-0.164 0.476h-0.030c-0.067-0.171-0.134-0.335-0.201-0.506s-0.141-0.35-0.216-0.521l-1.168-2.523h-0.863zM34.069 30.69c-0.104 0.045-0.223 0.089-0.357 0.127s-0.275 0.067-0.424 0.089c-0.156 0.015-0.305 0.030-0.469 0.030-0.476-0.007-0.878-0.104-1.213-0.29-0.335-0.194-0.595-0.469-0.767-0.819-0.179-0.357-0.268-0.774-0.268-1.258 0-0.387 0.052-0.729 0.164-1.034 0.104-0.298 0.26-0.551 0.461-0.759s0.447-0.365 0.729-0.476c0.283-0.104 0.595-0.156 0.938-0.156 0.246 0 0.469 0.022 0.67 0.067s0.372 0.104 0.506 0.171l0.194-0.618c-0.067-0.037-0.164-0.074-0.29-0.112-0.127-0.045-0.283-0.074-0.461-0.104-0.186-0.030-0.402-0.045-0.64-0.045-0.461 0-0.878 0.074-1.25 0.223-0.38 0.149-0.7 0.357-0.975 0.625-0.268 0.275-0.476 0.603-0.625 0.975-0.149 0.38-0.223 0.804-0.223 1.265 0 0.484 0.074 0.915 0.216 1.287 0.149 0.372 0.35 0.685 0.61 0.93 0.26 0.253 0.566 0.447 0.915 0.573 0.35 0.134 0.737 0.194 1.154 0.194 0.238 0 0.461-0.015 0.662-0.037 0.201-0.030 0.38-0.060 0.528-0.104s0.275-0.089 0.365-0.134l-0.149-0.61zM36.294 31.486h0.767v-5.239h1.801v-0.647h-4.353v0.647h1.786v5.239zM41.89 25.496c-0.394 0-0.759 0.074-1.087 0.216-0.335 0.149-0.618 0.357-0.863 0.625-0.246 0.275-0.432 0.595-0.566 0.975-0.141 0.38-0.208 0.804-0.208 1.273 0 0.447 0.067 0.856 0.194 1.22s0.305 0.677 0.543 0.945c0.231 0.268 0.514 0.469 0.834 0.61 0.327 0.141 0.685 0.216 1.072 0.216 0.305 0 0.595-0.037 0.863-0.127 0.275-0.082 0.521-0.216 0.752-0.38 0.223-0.171 0.424-0.38 0.588-0.625 0.171-0.253 0.305-0.543 0.394-0.871s0.134-0.692 0.141-1.094c-0.007-0.439-0.067-0.841-0.194-1.206-0.119-0.365-0.298-0.677-0.528-0.945s-0.514-0.469-0.841-0.618c-0.32-0.141-0.692-0.216-1.094-0.216zM41.868 26.113c0.253 0 0.476 0.045 0.677 0.134s0.38 0.216 0.528 0.372c0.149 0.156 0.275 0.335 0.372 0.543 0.097 0.201 0.171 0.417 0.223 0.647 0.045 0.231 0.074 0.469 0.074 0.707 0 0.335-0.045 0.647-0.127 0.945-0.082 0.29-0.208 0.551-0.365 0.774-0.164 0.223-0.357 0.402-0.595 0.528-0.231 0.127-0.499 0.194-0.804 0.194-0.238 0-0.461-0.045-0.655-0.127-0.201-0.082-0.372-0.201-0.528-0.35-0.149-0.149-0.283-0.327-0.38-0.528-0.104-0.201-0.186-0.417-0.238-0.655-0.052-0.231-0.082-0.476-0.082-0.729 0-0.26 0.022-0.506 0.074-0.752 0.052-0.238 0.127-0.461 0.231-0.67 0.097-0.201 0.223-0.387 0.372-0.543 0.156-0.149 0.335-0.275 0.536-0.357 0.201-0.089 0.424-0.134 0.685-0.134zM45.529 31.464c0.127 0.022 0.29 0.037 0.491 0.052 0.194 0.007 0.424 0.015 0.692 0.022 0.476 0 0.886-0.045 1.22-0.134 0.335-0.097 0.603-0.231 0.804-0.417 0.149-0.141 0.275-0.313 0.365-0.506s0.141-0.424 0.141-0.677c0-0.216-0.045-0.409-0.112-0.58-0.074-0.164-0.171-0.313-0.29-0.432s-0.246-0.216-0.387-0.29c-0.141-0.074-0.283-0.127-0.424-0.164v-0.022c0.201-0.074 0.38-0.179 0.528-0.305s0.26-0.275 0.342-0.447c0.082-0.171 0.119-0.35 0.119-0.543 0-0.231-0.045-0.432-0.134-0.61-0.082-0.171-0.208-0.313-0.357-0.432-0.119-0.097-0.253-0.179-0.409-0.238-0.149-0.067-0.327-0.112-0.528-0.141-0.194-0.030-0.417-0.045-0.67-0.045-0.179 0-0.35 0.007-0.521 0.015-0.171 0.015-0.327 0.030-0.476 0.045-0.149 0.022-0.283 0.045-0.394 0.074v5.775zM46.288 26.195c0.060-0.015 0.141-0.030 0.253-0.037 0.104-0.015 0.246-0.015 0.424-0.015 0.253-0.007 0.484 0.030 0.67 0.097 0.194 0.060 0.342 0.164 0.447 0.313 0.112 0.134 0.164 0.32 0.164 0.551 0 0.186-0.052 0.357-0.149 0.506-0.104 0.149-0.246 0.268-0.439 0.357-0.186 0.082-0.409 0.127-0.677 0.127h-0.692v-1.898zM46.288 28.666h0.633c0.208 0 0.402 0.022 0.588 0.060 0.179 0.045 0.342 0.112 0.484 0.208 0.134 0.089 0.246 0.208 0.327 0.35 0.074 0.141 0.119 0.32 0.119 0.514 0 0.216-0.045 0.394-0.127 0.543-0.082 0.141-0.194 0.26-0.335 0.35s-0.305 0.156-0.484 0.194c-0.179 0.037-0.372 0.060-0.566 0.060-0.134 0-0.253-0.007-0.365-0.007-0.104-0.007-0.194-0.015-0.275-0.030v-2.24zM54.214 30.69c-0.097 0.045-0.216 0.089-0.35 0.127s-0.275 0.067-0.432 0.089c-0.149 0.015-0.305 0.030-0.461 0.030-0.476-0.007-0.886-0.104-1.22-0.29-0.335-0.194-0.588-0.469-0.767-0.819-0.179-0.357-0.268-0.774-0.268-1.258 0-0.387 0.060-0.729 0.164-1.034 0.112-0.298 0.268-0.551 0.469-0.759s0.439-0.365 0.722-0.476c0.283-0.104 0.595-0.156 0.945-0.156 0.246 0 0.469 0.022 0.662 0.067 0.201 0.045 0.372 0.104 0.514 0.171l0.194-0.618c-0.067-0.037-0.164-0.074-0.29-0.112-0.127-0.045-0.283-0.074-0.469-0.104s-0.402-0.045-0.64-0.045c-0.461 0-0.871 0.074-1.25 0.223-0.372 0.149-0.7 0.357-0.967 0.625-0.275 0.275-0.484 0.603-0.633 0.975-0.149 0.38-0.223 0.804-0.223 1.265 0 0.484 0.074 0.915 0.223 1.287 0.141 0.372 0.342 0.685 0.603 0.93 0.26 0.253 0.566 0.447 0.923 0.573 0.35 0.134 0.729 0.194 1.154 0.194 0.238 0 0.454-0.015 0.655-0.037 0.201-0.030 0.38-0.060 0.536-0.104 0.149-0.045 0.268-0.089 0.357-0.134l-0.149-0.61zM55.323 25.6v5.886h0.759v-2.701h0.246c0.253 0 0.461 0.030 0.64 0.097 0.179 0.060 0.327 0.149 0.454 0.268 0.119 0.112 0.223 0.253 0.313 0.409 0.089 0.164 0.164 0.342 0.231 0.536 0.052 0.156 0.112 0.313 0.164 0.476s0.112 0.32 0.171 0.476c0.067 0.156 0.134 0.298 0.201 0.439h0.819c-0.089-0.179-0.164-0.357-0.231-0.536-0.074-0.179-0.141-0.365-0.208-0.551-0.067-0.194-0.134-0.387-0.208-0.588-0.074-0.194-0.156-0.38-0.246-0.551s-0.201-0.32-0.327-0.454c-0.127-0.134-0.275-0.246-0.454-0.327-0.171-0.089-0.38-0.149-0.625-0.186l2.225-2.694h-0.908l-2.017 2.612h-0.238v-2.612h-0.759zM60.056 25.6v5.886h0.811l1.846-2.94c0.201-0.32 0.394-0.647 0.588-0.982 0.186-0.335 0.357-0.662 0.499-0.99l0.030 0.007c-0.022 0.246-0.037 0.499-0.045 0.744s-0.015 0.506-0.022 0.774c0 0.268 0 0.558 0 0.878v2.508h0.714v-5.887h-0.759l-1.905 3.029c-0.216 0.35-0.409 0.685-0.595 1.005-0.179 0.32-0.342 0.64-0.484 0.945l-0.030-0.015c0.015-0.26 0.030-0.521 0.037-0.789 0.015-0.26 0.022-0.536 0.030-0.811 0-0.283 0-0.58 0-0.886v-2.478h-0.714zM68.837 28.093h-2.277v-1.853h2.419v-0.64h-3.185v5.887h3.319v-0.64h-2.553v-2.121h2.277v-0.633zM118.207 25.6v5.886h0.766v-2.761h2.843v2.761h0.766v-5.886h-0.766v2.463h-2.843v-2.463h-0.766zM126.281 25.496c-0.394 0-0.759 0.074-1.094 0.216-0.327 0.149-0.618 0.357-0.863 0.625-0.238 0.275-0.432 0.595-0.566 0.975s-0.201 0.804-0.201 1.273c0 0.447 0.060 0.856 0.194 1.22 0.126 0.365 0.305 0.677 0.543 0.945 0.231 0.268 0.513 0.469 0.834 0.61s0.677 0.216 1.072 0.216c0.305 0 0.588-0.037 0.863-0.127 0.268-0.082 0.521-0.216 0.752-0.38 0.223-0.171 0.424-0.38 0.588-0.625 0.171-0.253 0.298-0.543 0.387-0.871 0.097-0.327 0.141-0.692 0.141-1.094 0-0.439-0.060-0.841-0.186-1.206s-0.298-0.677-0.536-0.945c-0.231-0.268-0.506-0.469-0.834-0.618-0.327-0.141-0.692-0.216-1.094-0.216zM126.251 26.113c0.253 0 0.484 0.045 0.685 0.134s0.372 0.216 0.521 0.372c0.156 0.156 0.275 0.335 0.38 0.543 0.097 0.201 0.171 0.417 0.223 0.647 0.045 0.231 0.067 0.469 0.067 0.707 0 0.335-0.037 0.647-0.119 0.945-0.089 0.29-0.208 0.551-0.372 0.774-0.156 0.223-0.357 0.402-0.588 0.528-0.238 0.127-0.506 0.194-0.804 0.194-0.246 0-0.461-0.045-0.662-0.127-0.194-0.082-0.372-0.201-0.521-0.35-0.156-0.149-0.283-0.327-0.387-0.528s-0.179-0.417-0.238-0.655c-0.052-0.231-0.074-0.476-0.074-0.729 0-0.26 0.022-0.506 0.074-0.752 0.045-0.238 0.126-0.461 0.223-0.67 0.104-0.201 0.231-0.387 0.38-0.543 0.149-0.149 0.327-0.275 0.528-0.357 0.208-0.089 0.432-0.134 0.685-0.134zM129.444 25.6l2.084 2.709c-0.231 0.022-0.424 0.082-0.595 0.164-0.164 0.082-0.313 0.186-0.432 0.32s-0.223 0.283-0.313 0.454c-0.089 0.179-0.171 0.372-0.246 0.58-0.060 0.179-0.119 0.365-0.179 0.551s-0.126 0.372-0.186 0.558c-0.067 0.186-0.141 0.365-0.223 0.551h0.774c0.067-0.134 0.119-0.283 0.179-0.447 0.052-0.156 0.104-0.32 0.156-0.476 0.045-0.164 0.097-0.32 0.141-0.461 0.074-0.201 0.149-0.38 0.223-0.543 0.082-0.164 0.179-0.298 0.29-0.417 0.104-0.112 0.246-0.201 0.409-0.26 0.156-0.067 0.357-0.097 0.588-0.097h0.275v2.701h0.729v-2.701h0.268c0.231 0 0.432 0.030 0.588 0.097 0.164 0.060 0.305 0.149 0.409 0.26 0.112 0.119 0.208 0.253 0.29 0.417 0.074 0.164 0.149 0.342 0.216 0.543 0.052 0.141 0.097 0.298 0.149 0.461 0.045 0.156 0.097 0.32 0.149 0.476 0.060 0.164 0.119 0.313 0.186 0.447h0.774c-0.074-0.186-0.149-0.365-0.216-0.551-0.060-0.186-0.119-0.372-0.179-0.558-0.052-0.186-0.119-0.372-0.179-0.566-0.074-0.208-0.156-0.402-0.246-0.573-0.089-0.179-0.194-0.327-0.32-0.461-0.119-0.127-0.268-0.238-0.432-0.32-0.171-0.074-0.372-0.134-0.603-0.149l2.091-2.709h-0.886l-1.823 2.612h-0.238v-2.612h-0.729v2.612h-0.238l-1.823-2.612h-0.886zM136.908 25.6v5.886h0.819l1.838-2.94c0.201-0.32 0.402-0.647 0.588-0.982s0.357-0.662 0.506-0.99l0.022 0.007c-0.022 0.246-0.030 0.499-0.045 0.744-0.007 0.246-0.015 0.506-0.022 0.774 0 0.268 0 0.558 0 0.878v2.508h0.714v-5.887h-0.759l-1.905 3.029c-0.208 0.35-0.409 0.685-0.595 1.005-0.179 0.32-0.342 0.64-0.484 0.945l-0.030-0.015c0.022-0.26 0.030-0.521 0.045-0.789 0.007-0.26 0.015-0.536 0.022-0.811 0-0.283 0.007-0.58 0.007-0.886v-2.478h-0.722z"></path>
</symbol>
<symbol id="icon-person" viewBox="0 0 25 32">
<path   d="M12.103 16.354c0.034 0 0.057 0 0.091 0 0.011 0 0.023 0 0.034 0 0.023 0 0.046 0 0.069 0 1.737-0.034 3.143-0.709 4.183-2 2.297-2.846 1.909-7.714 1.874-8.183-0.149-3.486-1.646-5.154-2.891-5.931-0.914-0.583-1.989-0.903-3.2-0.926h-0.034c-0.011 0-0.023 0-0.023 0h-0.034c-0.663 0-1.966 0.114-3.2 0.903-1.257 0.777-2.777 2.446-2.926 5.954-0.034 0.469-0.423 5.337 1.874 8.183 1.029 1.291 2.434 1.966 4.183 2zM7.634 6.343c0-0.023 0.011-0.046 0.011-0.057 0.194-4.697 3.223-5.2 4.514-5.2h0.023c0.011 0 0.034 0 0.046 0 1.611 0.046 4.343 0.766 4.526 5.2 0 0.023 0 0.046 0 0.057 0.011 0.046 0.423 4.491-1.463 6.834-0.754 0.937-1.749 1.394-3.063 1.406-0.011 0-0.023 0-0.034 0s-0.011 0-0.023 0c-1.314-0.011-2.32-0.469-3.063-1.406-1.886-2.331-1.474-6.8-1.474-6.834z"></path>
<path   d="M24.411 24.434c0-0.011 0-0.023 0-0.023 0-0.057 0-0.103 0-0.16-0.034-1.303-0.114-4.331-2.697-5.303-0.011 0-0.046-0.011-0.057-0.023-2.686-0.754-4.914-2.446-4.937-2.469-0.366-0.286-0.857-0.183-1.12 0.217-0.251 0.4-0.16 0.949 0.194 1.223 0.103 0.080 2.469 1.897 5.429 2.731 1.394 0.549 1.543 2.171 1.589 3.669 0 0.057 0 0.114 0 0.16 0.011 0.594-0.023 1.509-0.126 2.023-0.96 0.606-4.731 2.686-10.48 2.686-5.714 0-9.52-2.080-10.48-2.686-0.103-0.526-0.137-1.44-0.126-2.023 0-0.057 0-0.103 0-0.16 0.046-1.497 0.194-3.131 1.589-3.669 2.96-0.846 5.326-2.663 5.429-2.731 0.354-0.286 0.446-0.834 0.194-1.234-0.263-0.4-0.754-0.491-1.12-0.217-0.023 0.023-2.24 1.726-4.937 2.48-0.023 0-0.046 0.011-0.057 0.023-2.583 0.971-2.663 4-2.697 5.291 0 0.057 0 0.114 0 0.16 0 0.011 0 0.011 0 0.023-0.011 0.343-0.011 2.091 0.297 2.96 0.057 0.171 0.171 0.32 0.309 0.423 0.183 0.126 4.457 3.12 11.611 3.12s11.429-3.006 11.6-3.12c0.137-0.103 0.251-0.251 0.309-0.423 0.297-0.869 0.297-2.617 0.286-2.949z"></path>
</symbol>
<symbol id="icon-whatsapp" viewBox="0 0 48 48">
    <path  d="M34.7507 13.2115C32.1777 10.5628 28.621 9.125 24.9885 9.125C17.2696 9.125 11.0642 15.4061 11.1399 23.0493C11.1399 25.4709 11.821 27.8169 12.9561 29.9358L10.9885 37.125L18.3291 35.2331C20.3723 36.3682 22.6426 36.898 24.9128 36.898C32.5561 36.898 38.7615 30.6169 38.7615 22.9736C38.7615 19.2655 37.3237 15.7845 34.7507 13.2115ZM24.9885 34.552C22.9453 34.552 20.902 34.0223 19.1615 32.9628L18.7074 32.7358L14.3183 33.8709L15.4534 29.5574L15.1507 29.1034C11.821 23.7304 13.4101 16.6169 18.8588 13.2872C24.3074 9.95743 31.3453 11.5466 34.675 16.9953C38.0047 22.4439 36.4156 29.4818 30.9669 32.8115C29.2264 33.9466 27.1074 34.552 24.9885 34.552ZM31.648 26.152L30.8156 25.7736C30.8156 25.7736 29.6047 25.2439 28.848 24.8655C28.7723 24.8655 28.6966 24.7899 28.621 24.7899C28.3939 24.7899 28.2426 24.8655 28.0912 24.9412C28.0912 24.9412 28.0156 25.0169 26.9561 26.2277C26.8804 26.3791 26.7291 26.4547 26.5777 26.4547H26.502C26.4264 26.4547 26.275 26.3791 26.1993 26.3034L25.821 26.152C24.9885 25.7736 24.2318 25.3196 23.6264 24.7142C23.475 24.5628 23.248 24.4115 23.0966 24.2601C22.5669 23.7304 22.0372 23.125 21.6588 22.4439L21.5831 22.2926C21.5074 22.2169 21.5074 22.1412 21.4318 21.9899C21.4318 21.8385 21.4318 21.6872 21.5074 21.6115C21.5074 21.6115 21.8101 21.2331 22.0372 21.0061C22.1885 20.8547 22.2642 20.6277 22.4156 20.4764C22.5669 20.2493 22.6426 19.9466 22.5669 19.7196C22.4912 19.3412 21.5831 17.298 21.3561 16.8439C21.2047 16.6169 21.0534 16.5412 20.8264 16.4655H20.5993C20.448 16.4655 20.221 16.4655 19.9939 16.4655C19.8426 16.4655 19.6912 16.5412 19.5399 16.5412L19.4642 16.6169C19.3128 16.6926 19.1615 16.8439 19.0101 16.9196C18.8588 17.0709 18.7831 17.2223 18.6318 17.3736C18.102 18.0547 17.7993 18.8872 17.7993 19.7196C17.7993 20.325 17.9507 20.9304 18.1777 21.4601L18.2534 21.6872C18.9345 23.125 19.8426 24.4115 21.0534 25.5466L21.3561 25.8493C21.5831 26.0764 21.8101 26.2277 21.9615 26.4547C23.5507 27.8169 25.3669 28.8007 27.4101 29.3304C27.6372 29.4061 27.9399 29.4061 28.1669 29.4818C28.3939 29.4818 28.6966 29.4818 28.9237 29.4818C29.302 29.4818 29.7561 29.3304 30.0588 29.1791C30.2858 29.0277 30.4372 29.0277 30.5885 28.8764L30.7399 28.725C30.8912 28.5736 31.0426 28.498 31.1939 28.3466C31.3453 28.1953 31.4966 28.0439 31.5723 27.8926C31.7237 27.5899 31.7993 27.2115 31.875 26.8331C31.875 26.6818 31.875 26.4547 31.875 26.3034C31.875 26.3034 31.7993 26.2277 31.648 26.152Z"></path>
</symbol>
    <symbol id="icon-star" viewBox="0 0 21 20" >
        <path id="Star 5" d="M10 0L7.53 7.6L-0.47 7.6L6 12.29L3.53 19.89L10 15.2L16.46 19.89L13.99 12.29L20.46 7.6L12.47 7.6L10 0Z"  fill-opacity="1.000000" fill-rule="nonzero"/>

    </symbol>
</defs>
</svg>
